<svg xmlns="http://www.w3.org/2000/svg" viewBox="0 0 186.26 78.86"><defs><style>.cls-1{fill:#ec622b;}.cls-2{fill:#fff;}.cls-3{fill:#ec632a;}</style></defs><title>Recurso 6</title><g id="Capa_2" data-name="Capa 2"><g id="Capa_1-2" data-name="Capa 1"><path class="cls-1" d="M4.19,7.66v14c0,3.16,1,4.12,2.05,4.12s2.08-.86,2.08-4.12v-14h4.19V20.94c0,5.54-2.08,8.54-6.24,8.54C1.76,29.48,0,26.38,0,21V7.66Z"/><path class="cls-1" d="M15.75,18.28c0-1.72-.1-3.23-.13-4.7h3.61l.2,1.79h.06a4.49,4.49,0,0,1,3.81-2c3,0,4.16,2.37,4.16,5.86V29.23H23.27V19.44c0-1.35-.32-2.6-1.54-2.6-.7,0-1.28.48-1.57,1.41a4.06,4.06,0,0,0-.22,1.44v9.54H15.75Z"/><path class="cls-1" d="M37.41,29.23l-.22-1.54h-.07a4.07,4.07,0,0,1-3.45,1.79c-2.37,0-4.13-2-4.13-4.76,0-4.1,3.62-5.8,7.17-5.83v-.35a2,2,0,0,0-2.21-2.11,5.9,5.9,0,0,0-3.2.89l-.77-2.81a10.24,10.24,0,0,1,4.87-1.19c4.76,0,5.53,3.33,5.53,6.5v5.82a21.26,21.26,0,0,0,.26,3.59Zm-.57-7.62c-1.41,0-3.33.48-3.33,2.66,0,1.57.86,2.14,1.5,2.14a1.82,1.82,0,0,0,1.73-1.34,2.94,2.94,0,0,0,.1-.74Z"/><path class="cls-2" d="M68.05,25.36c-.17-3.7-.46-8.74-.34-12.91h-.18c-.69,4.17-1.73,9-2.49,12l-3.36,14H56.3L53.06,24.67c-.76-3.13-1.8-8-2.38-12.22h-.17c-.12,4.23-.35,9.15-.58,13L49.29,39H42.75L45.59,0h8l3.13,14.13c1.1,4.92,2.08,9.26,2.77,13.66h.12c.58-4.34,1.45-8.74,2.49-13.66L65.16,0h8l2.37,39H68.75Z"/><path class="cls-2" d="M93.31,39l-.41-2.78h-.12a7.38,7.38,0,0,1-6.25,3.24c-4.28,0-7.47-3.59-7.47-8.63,0-7.41,6.54-10.48,13-10.54v-.63c0-2.2-1.33-3.82-4-3.82a10.61,10.61,0,0,0-5.79,1.62l-1.39-5.1a18.5,18.5,0,0,1,8.8-2.14c8.63,0,10,6,10,11.75V32.54a37.76,37.76,0,0,0,.46,6.49Zm-1-13.78c-2.54.05-6,.87-6,4.8,0,2.84,1.56,3.88,2.72,3.88a3.29,3.29,0,0,0,3.13-2.43,4.75,4.75,0,0,0,.17-1.33Z"/><path class="cls-2" d="M105,19.22c0-2.83-.12-5.9-.24-8.51h6.6l.41,4.11H112c1.28-3,3.54-4.57,5.62-4.57a6.7,6.7,0,0,1,1.62.11v7.53a7.18,7.18,0,0,0-1.62-.11c-1.62,0-3.76,1.1-4.63,4a11.22,11.22,0,0,0-.29,2.84V39H105Z"/><path class="cls-2" d="M137.55,38.57a13.56,13.56,0,0,1-4.81.8c-7.18,0-11.87-5-11.87-14.24,0-8.74,5.16-14.82,13-14.82a11.05,11.05,0,0,1,4.17.75l-1,6a8,8,0,0,0-2.84-.52c-3.65,0-5.79,3.48-5.79,8.4,0,5.15,2.14,8.28,5.68,8.28a6.12,6.12,0,0,0,2.83-.58Z"/><path class="cls-2" d="M154.11,39l-.4-2.78h-.12a7.38,7.38,0,0,1-6.25,3.24c-4.29,0-7.47-3.59-7.47-8.63,0-7.41,6.54-10.48,13-10.54v-.63c0-2.2-1.33-3.82-4-3.82a10.64,10.64,0,0,0-5.79,1.62l-1.39-5.1a18.58,18.58,0,0,1,8.81-2.14c8.62,0,10,6,10,11.75V32.54A37.72,37.72,0,0,0,161,39Zm-1-13.78c-2.55.05-6,.87-6,4.8,0,2.84,1.56,3.88,2.72,3.88a3.29,3.29,0,0,0,3.13-2.43,5.15,5.15,0,0,0,.17-1.33Z"/><path class="cls-2" d="M16.27,34.83a44.49,44.49,0,0,1,9-.86c5.11,0,9.11.72,12,3.41,2.62,2.3,3.8,6,3.8,9.7,0,4.78-1.44,8.13-3.73,10.62-2.76,2.88-7.21,4.19-10.75,4.19h-1.7V78.34H16.27Zm8.59,20.05a4.46,4.46,0,0,0,1.37.13c4.33,0,6.29-3.08,6.29-7.21,0-3.86-1.57-6.88-5.57-6.88a6.27,6.27,0,0,0-2.09.33Z"/><path class="cls-2" d="M45.37,55.93c0-3.21-.13-6.69-.26-9.64h7.47L53,51h.2c1.44-3.41,4-5.18,6.36-5.18a7.23,7.23,0,0,1,1.83.13v8.52a7.78,7.78,0,0,0-1.83-.13c-1.84,0-4.26,1.24-5.24,4.59A12.79,12.79,0,0,0,54,62.09V78.34H45.37Z"/><path class="cls-2" d="M71.58,65.36c.13,5,3,6.82,6.82,6.82a19,19,0,0,0,6.09-1.05l1.18,6.16a26.64,26.64,0,0,1-8.85,1.44c-8.71,0-13.5-5.77-13.5-15.79,0-10.75,5.57-17.17,12.85-17.17,6.88,0,10.88,5.44,10.88,15.14a22.22,22.22,0,0,1-.27,4.45Zm7.67-6c0-4.12-1-7.34-3.61-7.34-2.81,0-3.93,4.13-4,7.34Z"/><path class="cls-2" d="M91.9,55.93c0-3.54-.2-6.62-.27-9.64H99.1L99.5,50h.13a9.23,9.23,0,0,1,7.67-4.26c3.6,0,5.89,1.64,7,4.33h.13a10.6,10.6,0,0,1,3.21-3.22,9.42,9.42,0,0,1,4.52-1.11c5.7,0,8.26,4.52,8.26,12.25V78.34h-8.52V59.47c0-3.67-.39-6.62-3-6.62-1.5,0-2.62,1-3.21,2.95a9.36,9.36,0,0,0-.26,2.22V78.34H106.9V58.22c0-2.29-.26-5.37-3-5.37-1.31,0-2.62,1-3.21,2.88a8.56,8.56,0,0,0-.33,2.42V78.34H91.9Z"/><rect class="cls-2" x="136.46" y="46.29" width="8.58" height="32.04"/><path class="cls-2" d="M165.42,78.34,165,75.19h-.13a8.37,8.37,0,0,1-7.07,3.67c-4.85,0-8.46-4.06-8.46-9.76,0-8.39,7.41-11.86,14.68-11.93v-.72c0-2.49-1.51-4.32-4.52-4.32A12,12,0,0,0,152.91,54l-1.58-5.77a21,21,0,0,1,10-2.42c9.77,0,11.34,6.82,11.34,13.3V71a42.22,42.22,0,0,0,.53,7.34Zm-1.18-15.6c-2.88.07-6.81,1-6.81,5.44,0,3.21,1.77,4.39,3.08,4.39a3.73,3.73,0,0,0,3.54-2.75,5.63,5.63,0,0,0,.19-1.51Z"/><path class="cls-3" d="M170.38,12.15v4.22h3.07v3h-3.07v7.13c0,1.83.77,2.28,1.6,2.28a5.25,5.25,0,0,0,1.09-.1l0,3.27a9.9,9.9,0,0,1-2.56.28,4.18,4.18,0,0,1-3-1c-.87-.83-1.35-2-1.35-4.48V19.35h-1.85v-3h1.85V13.14Z"/><path class="cls-3" d="M178.7,25.69c.07,2.43,1.48,3.32,3.33,3.32a9.15,9.15,0,0,0,3-.51l.57,3a12.84,12.84,0,0,1-4.32.7c-4.25,0-6.59-2.81-6.59-7.71,0-5.25,2.72-8.38,6.27-8.38,3.36,0,5.32,2.65,5.32,7.39a11.65,11.65,0,0,1-.13,2.18Zm3.75-3c0-2-.51-3.58-1.76-3.58s-1.92,2-1.95,3.58Z"/></g></g></svg>