<svg xmlns="http://www.w3.org/2000/svg" viewBox="0 0 34.11 8.69"><defs><style>.cls-1{opacity:0.71;}.cls-2{fill:#1d1d1b;}</style></defs><title>Recurso 20</title><g id="Capa_2" data-name="Capa 2"><g id="Capa_1-2" data-name="Capa 1"><g class="cls-1"><line class="cls-2" y1="8.69" x2="34.11"/><path d="M0,8.69s2.05-.87,5.19-1.91c1.57-.54,3.41-1.11,5.39-1.69,1-.28,2-.6,3.06-.87l3.17-.84L20,2.6c1.05-.27,2.1-.47,3.1-.7,2-.45,3.91-.82,5.54-1.1C31.9.22,34.11,0,34.11,0s-2,.87-5.18,1.91C27.36,2.45,25.52,3,23.54,3.6c-1,.28-2,.6-3.06.87l-3.18.84-3.19.78c-1,.26-2.09.47-3.1.7C9,7.23,7.1,7.6,5.47,7.88,2.21,8.47,0,8.69,0,8.69Z"/></g></g></g></svg>