<svg id="Capa_1" data-name="Capa 1" xmlns="http://www.w3.org/2000/svg" xmlns:xlink="http://www.w3.org/1999/xlink" viewBox="0 0 34.97 41.71"><defs><style>.cls-1{fill:url(#linear-gradient);}.cls-2{fill:url(#linear-gradient-2);}</style><linearGradient id="linear-gradient" x1="18.74" y1="29.68" x2="28.44" y2="29.68" gradientUnits="userSpaceOnUse"><stop offset="0" stop-color="#2a5d9c"/><stop offset="1" stop-color="#0c1529"/></linearGradient><linearGradient id="linear-gradient-2" x1="3.92" y1="21.01" x2="28.44" y2="21.01" xlink:href="#linear-gradient"/></defs><title>iconos una marca</title><text/><path class="cls-1" d="M27.6,21.68a.53.53,0,1,0-1,.39A11.21,11.21,0,0,1,19.13,37a.54.54,0,0,0-.37.66.53.53,0,0,0,.51.37h.14A12.28,12.28,0,0,0,27.6,21.68Z"/><path class="cls-2" d="M22,32.31a7.14,7.14,0,0,0,2.34-5.9,22.05,22.05,0,0,1,4-12.61.47.47,0,0,0,.08-.14.09.09,0,0,0,0-.05.52.52,0,0,0,0-.14.43.43,0,0,1,0-.05.83.83,0,0,0,0-.15v0h0a.41.41,0,0,0-.12-.14l0,0A.34.34,0,0,0,28.1,13h-.05a.34.34,0,0,0-.14,0h-.05C27.39,13,16,14.17,12,21.13c-3.07,5.34-1.2,8.81.9,10.77a7.12,7.12,0,0,0,3.3,1.77c0,.87-.08,1.71-.09,2.52a1.11,1.11,0,0,1-.39.83,1,1,0,0,1-.84.28l-.06.52,0-.52A12,12,0,0,1,5,27.2a11.16,11.16,0,0,1,6-11,3.18,3.18,0,0,0,1.72-2.81V7.34H19.6v5a.53.53,0,0,0,.53.53.52.52,0,0,0,.52-.53v-5A1.58,1.58,0,0,0,22,5.76V5.23A1.58,1.58,0,0,0,20.4,3.66H12a1.58,1.58,0,0,0-1.58,1.57v.53A1.58,1.58,0,0,0,11.7,7.31v6.08a2.14,2.14,0,0,1-1.15,1.88A12.22,12.22,0,0,0,4,27.3a12.91,12.91,0,0,0,10.74,11l.1,0H15a2.08,2.08,0,0,0,1.42-.54,2.21,2.21,0,0,0,.75-1.61c0-.75,0-1.56.09-2.37h.51A6.44,6.44,0,0,0,22,32.31ZM11.44,5.76V5.23A.51.51,0,0,1,12,4.72H20.4a.51.51,0,0,1,.52.51v.53a.53.53,0,0,1-.52.53H12A.52.52,0,0,1,11.44,5.76Zm2.22,25.38C11,28.66,10.77,25.46,13,21.66c2.58-4.51,8.76-6.42,12.33-7.19-6.55,4.57-8.44,11.88-9,18.15A6.19,6.19,0,0,1,13.66,31.14ZM26.29,15.05a22.4,22.4,0,0,0-3,11.39,6.12,6.12,0,0,1-2,5.07,5.39,5.39,0,0,1-4,1.27C17.87,26.61,19.72,19.42,26.29,15.05Z"/></svg>