<svg id="Capa_1" data-name="Capa 1" xmlns="http://www.w3.org/2000/svg" xmlns:xlink="http://www.w3.org/1999/xlink" viewBox="0 0 62.59 35.65"><defs><style>.cls-1{fill:url(#linear-gradient);}.cls-2{fill:url(#linear-gradient-2);}.cls-3{fill:url(#linear-gradient-3);}.cls-4{fill:url(#linear-gradient-4);}</style><linearGradient id="linear-gradient" x1="10.17" y1="23.94" x2="20.11" y2="23.94" gradientUnits="userSpaceOnUse"><stop offset="0" stop-color="#2a5d9c"/><stop offset="1" stop-color="#0c1529"/></linearGradient><linearGradient id="linear-gradient-2" x1="7" y1="19.37" x2="58.93" y2="19.37" xlink:href="#linear-gradient"/><linearGradient id="linear-gradient-3" x1="45.82" y1="23.94" x2="55.77" y2="23.94" xlink:href="#linear-gradient"/><linearGradient id="linear-gradient-4" x1="16.18" y1="23.8" x2="49.75" y2="23.8" xlink:href="#linear-gradient"/></defs><title>iconos una marca</title><path class="cls-1" d="M20,25.91c.52-.14-.94-1.24-.94-1.24A72.2,72.2,0,0,0,10.45,22c-1,.36,1.09,2.5,1.77,2.88A40.35,40.35,0,0,0,20,25.91Z"/><path class="cls-2" d="M58.47,13.69a1.5,1.5,0,0,0-1.08-.6A13.39,13.39,0,0,0,56,13a24.9,24.9,0,0,0-2.58.14.39.39,0,0,0-.27.15.38.38,0,0,0-.07.29A5.06,5.06,0,0,1,53,16.1c-.45-.73-1.41-2.27-2.46-3.83-3-4.49-3.77-4.67-4.13-4.75-1.27-.3-10.12-.7-12.76-.81v0l-.65,0-.65,0v0c-2.63.11-11.48.51-12.75.81-.36.08-1.12.26-4.14,4.75-1,1.56-2,3.1-2.45,3.83a5.06,5.06,0,0,1-.15-2.49.34.34,0,0,0-.08-.29.35.35,0,0,0-.26-.15A25.13,25.13,0,0,0,9.9,13a13.39,13.39,0,0,0-1.35.06,1.54,1.54,0,0,0-1.09.6,3.9,3.9,0,0,0-.37,2.68.37.37,0,0,0,.24.29L10.63,18a15.46,15.46,0,0,0-2.16,1.88c-.26.3-.74.87-.5,6.4.11,2.61.34,5.13.34,5.16l.06.68L9.73,32l-.06-.68c-.36-4-.54-8.72-.26-10.19l10.23,3.35c.17.14.34.29.5.45s.35.34.51.52A1.75,1.75,0,0,1,21,26a.18.18,0,0,1,0,.09s0,0,0,0l0,0s0,0,0,0l0,0h-.06l-.07,0a4.28,4.28,0,0,1-.72,0q-.37,0-.75,0l-1.5-.08c-1-.08-2-.19-3-.33-.49-.07-1-.15-1.48-.25l-.74-.17a4.52,4.52,0,0,1-.71-.23,5.34,5.34,0,0,0,.7.27l.73.2c.49.12,1,.23,1.48.33,1,.19,2,.35,3,.48l1.51.15.77.05a5.19,5.19,0,0,0,.78,0,1.32,1.32,0,0,0,.24,0l.05,0,.07,0,.12-.09a.51.51,0,0,0,.15-.3.64.64,0,0,0,0-.28,2.43,2.43,0,0,0-.41-.75c-.17-.21-.34-.4-.52-.59A7.14,7.14,0,0,0,20,24l-.07-.05h0l-9.78-3.76c1-.9,2.83-2.19,3.57-2.7a.81.81,0,0,0,.16-.16c2.55-.09,12.83-.45,19.13-.45s16.58.36,19.13.45a.57.57,0,0,0,.15.16c.75.51,2.54,1.8,3.57,2.7L46.05,23.9h0A.18.18,0,0,0,46,24a7.14,7.14,0,0,0-.56.54,7.31,7.31,0,0,0-.52.59,2.24,2.24,0,0,0-.41.75.82.82,0,0,0,0,.28.52.52,0,0,0,.16.3l.12.09.07,0,.05,0a1.24,1.24,0,0,0,.23,0,5.32,5.32,0,0,0,.79,0l.76-.05c.51,0,1-.09,1.51-.15,1-.13,2-.29,3-.48.49-.1,1-.21,1.48-.33l.72-.2a6.09,6.09,0,0,0,.71-.27,4.32,4.32,0,0,1-.72.23l-.73.17c-.49.1-1,.18-1.49.25-1,.14-2,.25-3,.33l-1.5.08c-.25,0-.49,0-.74,0a4.14,4.14,0,0,1-.72,0l-.08,0h0l0,0h0s0,0,0,0,0,0,0,0a.34.34,0,0,1,0-.09,2,2,0,0,1,.35-.55,6.08,6.08,0,0,1,.5-.52c.16-.16.34-.31.51-.45L56.53,21.1c.28,1.47.1,6.15-.26,10.19l-.06.68,1.36.12.06-.68s.23-2.55.34-5.16c.23-5.53-.24-6.1-.5-6.4A15.64,15.64,0,0,0,55.3,18l3.31-1.31a.37.37,0,0,0,.24-.29A4,4,0,0,0,58.47,13.69ZM7.82,16a3,3,0,0,1,.27-1.86.68.68,0,0,1,.54-.29,11.76,11.76,0,0,1,1.27-.06c.82,0,1.63.06,2.1.09a4.41,4.41,0,0,0,.41,2.76l-1.05.76Zm25.15,0h-.39c-6,0-15.1.32-18.25.44,2.2-3.58,4.81-7.33,5.56-7.65,1-.23,8.35-.6,13.08-.79,4.72.19,12.06.56,13.08.79.75.32,3.36,4.07,5.56,7.65-3.15-.12-12.29-.42-18.25-.44H33Zm25.15,0-3.55,1.4-1-.76a4.48,4.48,0,0,0,.41-2.76c.46,0,1.27-.09,2.1-.09a11.76,11.76,0,0,1,1.27.06.7.7,0,0,1,.54.29A3,3,0,0,1,58.12,16Z"/><path class="cls-3" d="M55.48,22a72.77,72.77,0,0,0-8.61,2.71s-1.45,1.1-.94,1.24a40.14,40.14,0,0,0,7.78-1.07C54.4,24.46,56.52,22.32,55.48,22Z"/><path class="cls-4" d="M44.9,23.42a1.46,1.46,0,0,1,.27-.2,3.82,3.82,0,0,1,.64-.32,13.18,13.18,0,0,1,1.26-.47c.79-.27,1.47-.45,1.94-.58l.74-.2L49,21.8c-.48.1-1.17.24-2,.45-.41.11-.85.23-1.31.39-.23.09-.46.18-.7.3a1.29,1.29,0,0,0-.35.24,2.06,2.06,0,0,0-.26.34,5.1,5.1,0,0,1-1.11,1.06,3.85,3.85,0,0,1-.68.39,1.5,1.5,0,0,1-.34.11h-.39c-.28,0-.55,0-.82,0l-.82,0L38.63,25l-2.86-.12-2.23-.1v-.06l-.57,0-.58,0v.06l-2.22.1L27.31,25l-1.62.05-.81,0c-.28,0-.54,0-.83,0h-.39a1.67,1.67,0,0,1-.34-.11,3.77,3.77,0,0,1-.67-.39,4.88,4.88,0,0,1-1.11-1.06,2.82,2.82,0,0,0-.26-.34,1.46,1.46,0,0,0-.35-.24c-.24-.12-.47-.21-.7-.3-.46-.16-.9-.28-1.31-.39-.81-.21-1.5-.35-2-.45l-.76-.15.75.2c.47.13,1.14.31,1.94.58.39.13.82.28,1.26.47a3.82,3.82,0,0,1,.64.32,1.46,1.46,0,0,1,.27.2,3.39,3.39,0,0,1,.19.3A5.52,5.52,0,0,0,22.36,25a4.75,4.75,0,0,0,.74.49,2,2,0,0,0,.45.17h.23l.21,0c.27,0,.57,0,.85.06l.85,0,1.62.05,2.87.07,2.19,0v0h1.19v0l2.2,0,2.87-.07,1.62-.05.85,0c.28,0,.57,0,.85-.06l.21,0h.23a2,2,0,0,0,.45-.17,4.75,4.75,0,0,0,.74-.49,5.77,5.77,0,0,0,1.13-1.24A2,2,0,0,1,44.9,23.42Z"/></svg>