<svg id="Capa_1" data-name="Capa 1" xmlns="http://www.w3.org/2000/svg" xmlns:xlink="http://www.w3.org/1999/xlink" viewBox="0 0 42.17 40.78"><defs><style>.cls-1{opacity:0.8;fill:url(#linear-gradient);}</style><linearGradient id="linear-gradient" x1="-311.12" y1="20.59" x2="-276.2" y2="20.59" gradientTransform="matrix(-1, 0, 0, 1, -272.27, 0)" gradientUnits="userSpaceOnUse"><stop offset="0" stop-color="#2a5d9c"/><stop offset="1" stop-color="#0c1529"/></linearGradient></defs><title>iconos una marca</title><path class="cls-1" d="M29.35,3.45A1.09,1.09,0,0,1,30.89,5l-5.45,5.45a1.08,1.08,0,0,1-.77.33,1,1,0,0,1-.77-.33,1.08,1.08,0,0,1,0-1.54ZM17.17,23.26c-1.6-2.51-1.64-4.6-.12-6.53a9.52,9.52,0,0,0,1.83,4.83Zm1.53,8.21c-1.93,1.53-4,1.49-6.52-.12l1.69-1.7A9.4,9.4,0,0,0,18.7,31.47Zm-4.8-4.94c-1.6-2.51-1.65-4.6-.11-6.53a9.5,9.5,0,0,0,1.81,4.84ZM10.63,29.8C9,27.29,9,25.21,10.52,23.28a9.38,9.38,0,0,0,1.81,4.83Zm14.62-4.88c-1.93,1.53-4,1.49-6.53-.12l1.7-1.69A9.29,9.29,0,0,0,25.25,24.92Zm-8.11,1.46A9.43,9.43,0,0,0,22,28.2c-1.94,1.53-4,1.48-6.53-.12Zm3.13-12.87a5.73,5.73,0,0,1,.08,6.34C18.84,17.42,18.81,15.4,20.27,13.51Zm7.64.57c-.22,3.25-1.44,4.14-4.31,4.3C23.75,15.51,24.66,14.28,27.91,14.08Zm-3,6.64a5.47,5.47,0,0,1,3.58,1c-1.89,1.46-3.91,1.44-6.34-.08A6.31,6.31,0,0,1,24.89,20.72Zm2.75,5a1.1,1.1,0,0,0,.21-1.19,8.35,8.35,0,0,0,3-2.08,1.08,1.08,0,0,0,0-1.53,8,8,0,0,0-2.78-1.85c1.29-1.13,2-3,2-6.11A1.09,1.09,0,0,0,29,11.86c-3.1,0-5,.73-6.11,2a8.38,8.38,0,0,0-1.86-2.78,1.08,1.08,0,0,0-1.53,0,8.35,8.35,0,0,0-2.08,3.05,1.08,1.08,0,0,0-1.19.22,8.41,8.41,0,0,0-2.09,3.06,1.08,1.08,0,0,0-1.19.21,8.47,8.47,0,0,0-2.08,3.06,1.07,1.07,0,0,0-1.19.22c-2.18,2.1-4,5.6-.67,10.49l-4.8,4.8A1.09,1.09,0,0,0,5,38.05a1.09,1.09,0,0,0,.76-.32l4.8-4.81a9.24,9.24,0,0,0,5.17,1.84,7.42,7.42,0,0,0,5.33-2.5,1.1,1.1,0,0,0,.21-1.19A8.54,8.54,0,0,0,24.37,29a1.09,1.09,0,0,0,.2-1.19A8.31,8.31,0,0,0,27.64,25.71ZM31.54,8.9a1.08,1.08,0,0,0,0,1.54,1.05,1.05,0,0,0,1.53,0L38.53,5A1.09,1.09,0,1,0,37,3.45Zm0,7.64a1.08,1.08,0,0,0,0,1.54,1.05,1.05,0,0,0,1.53,0l5.46-5.45A1.09,1.09,0,1,0,37,11.09Z"/></svg>