<svg id="Capa_1" data-name="Capa 1" xmlns="http://www.w3.org/2000/svg" xmlns:xlink="http://www.w3.org/1999/xlink" viewBox="0 0 38.92 38.21"><defs><style>.cls-1{fill:url(#linear-gradient);}.cls-2{fill:url(#linear-gradient-2);}</style><linearGradient id="linear-gradient" x1="3.82" y1="19.34" x2="36.17" y2="19.34" gradientUnits="userSpaceOnUse"><stop offset="0" stop-color="#2a5d9c"/><stop offset="1" stop-color="#0c1529"/></linearGradient><linearGradient id="linear-gradient-2" x1="8.17" y1="26.66" x2="17.2" y2="26.66" xlink:href="#linear-gradient"/></defs><title>iconos una marca</title><path class="cls-1" d="M35.26,7.92l.81-1a.5.5,0,0,0,0-.66L33.1,3.31a.5.5,0,0,0-.65-.05l-1,.82-.74-.73a.47.47,0,0,0-.69,0A.49.49,0,0,0,30,4l.66.65-1.18.93-.73-.74a.49.49,0,0,0-.69,0,.48.48,0,0,0,0,.7l.65.65-1.18.92-.73-.73a.49.49,0,0,0-.69.69l.65.67-.94.72a.59.59,0,0,0-.18.37.53.53,0,0,0,.15.38l.85.85L22.73,14c-4.25-2.31-11.63-.88-16,3.45A8.88,8.88,0,0,0,3.9,25.11,12.16,12.16,0,0,0,7.54,31.8a11.58,11.58,0,0,0,7.88,3.71,9,9,0,0,0,6.46-2.94c4.35-4.33,5.77-11.71,3.46-16l3.9-3.9.86.86a.49.49,0,0,0,.34.14h0a.52.52,0,0,0,.36-.19l.74-.93.66.66a.47.47,0,0,0,.34.13.51.51,0,0,0,.35-.13.5.5,0,0,0,0-.7l-.74-.74.92-1.17.66.66a.57.57,0,0,0,.35.14.59.59,0,0,0,.35-.14.5.5,0,0,0,0-.7l-.74-.73.92-1.18.66.66a.52.52,0,0,0,.35.14A.49.49,0,0,0,36,9.35a.5.5,0,0,0,0-.7Zm-14.07,24c-5.65,5.65-11.35.83-13-.78A11.32,11.32,0,0,1,4.86,25a7.84,7.84,0,0,1,2.6-6.83A15.34,15.34,0,0,1,17.9,13.83a9.08,9.08,0,0,1,4.12.89l-2.19,2.17a3.69,3.69,0,0,0-.95-.12,3.64,3.64,0,0,0-2.61,1.08,3.67,3.67,0,0,0,0,5.22,3.69,3.69,0,0,0,5.22,0,3.67,3.67,0,0,0,1.09-2.6,3.32,3.32,0,0,0-.14-1l2.17-2.17C26.57,21.24,25.17,27.9,21.19,31.89Zm.4-11.42a2.68,2.68,0,0,1-.79,1.9,2.7,2.7,0,0,1-3.84,0,2.68,2.68,0,0,1,0-3.82,2.7,2.7,0,0,1,3.84,0A2.67,2.67,0,0,1,21.59,20.47ZM22,18.53a3.23,3.23,0,0,0-.54-.68,4,4,0,0,0-.69-.54l6.52-6.52L28.54,12Zm8.37-6.05L26.85,8.94l5.87-4.63L35,6.63Z"/><path class="cls-2" d="M11.11,22.65a1.74,1.74,0,0,0-2.43,0,1.7,1.7,0,0,0,0,2.43l5.58,5.59a1.72,1.72,0,0,0,2.44-2.43ZM16,30a.73.73,0,0,1-1,0L9.37,24.38a.73.73,0,0,1,0-1.05.75.75,0,0,1,.52-.22.79.79,0,0,1,.52.22L16,28.92A.73.73,0,0,1,16,30Z"/></svg>