<svg id="Capa_1" data-name="Capa 1" xmlns="http://www.w3.org/2000/svg" xmlns:xlink="http://www.w3.org/1999/xlink" viewBox="0 0 35.97 30.06"><defs><style>.cls-1{fill:url(#linear-gradient);}.cls-2{fill:url(#linear-gradient-2);}.cls-3{fill:url(#linear-gradient-3);}.cls-4{fill:url(#linear-gradient-4);}.cls-5{fill:url(#linear-gradient-5);}</style><linearGradient id="linear-gradient" x1="22.83" y1="20.79" x2="25.06" y2="20.79" gradientUnits="userSpaceOnUse"><stop offset="0" stop-color="#2a5d9c"/><stop offset="1" stop-color="#0c1529"/></linearGradient><linearGradient id="linear-gradient-2" x1="11.21" y1="20.79" x2="13.45" y2="20.79" xlink:href="#linear-gradient"/><linearGradient id="linear-gradient-3" x1="3.13" y1="15.96" x2="33.15" y2="15.96" xlink:href="#linear-gradient"/><linearGradient id="linear-gradient-4" x1="17.69" y1="20.78" x2="18.59" y2="20.78" xlink:href="#linear-gradient"/><linearGradient id="linear-gradient-5" x1="27.59" y1="21.2" x2="31.36" y2="21.2" xlink:href="#linear-gradient"/></defs><title>iconos una marca</title><path class="cls-1" d="M23.22,25.79h.06a.45.45,0,0,0,.45-.38l1.32-9.1a.44.44,0,0,0-.38-.52.46.46,0,0,0-.52.38l-1.32,9.1A.46.46,0,0,0,23.22,25.79Z"/><path class="cls-2" d="M13,25.79h.07a.47.47,0,0,0,.39-.52l-1.33-9.1a.46.46,0,0,0-.51-.38.44.44,0,0,0-.39.52l1.33,9.1A.44.44,0,0,0,13,25.79Z"/><path class="cls-3" d="M33.15,12.42V11.07a.46.46,0,0,0-.46-.46H30.75L24.51,3.83a.46.46,0,0,0-.64,0,.47.47,0,0,0,0,.65l5.67,6.17H6.76l5.67-6.17a.45.45,0,1,0-.67-.61L5.53,10.61H3.58a.45.45,0,0,0-.45.46v1.35a1.83,1.83,0,0,0,1.46,1.79L8,26.26a2.74,2.74,0,0,0,2.63,2H25.67a2.72,2.72,0,0,0,2.62-2l.41-1.46a3.3,3.3,0,0,0,.77.08,3.67,3.67,0,0,0,1.22-7.14l1-3.53A1.82,1.82,0,0,0,33.15,12.42ZM4,12.42v-.91H32.24v.91a.92.92,0,0,1-.91.92H5A.92.92,0,0,1,4,12.42Zm28.21,8.79a2.77,2.77,0,1,1-2.77-2.77A2.78,2.78,0,0,1,32.24,21.21ZM29.8,17.55h-.33a3.66,3.66,0,0,0-1.62,7L27.42,26a1.83,1.83,0,0,1-1.75,1.34H10.61A1.84,1.84,0,0,1,8.85,26L5.55,14.24H30.73Z"/><path class="cls-4" d="M18.14,25.79a.44.44,0,0,0,.45-.45v-9.1a.45.45,0,1,0-.9,0v9.1A.44.44,0,0,0,18.14,25.79Z"/><path class="cls-5" d="M29,19.78v1H28a.45.45,0,0,0-.45.46.46.46,0,0,0,.45.46h1v1a.44.44,0,0,0,.45.45.45.45,0,0,0,.46-.45v-1h1a.47.47,0,0,0,.46-.46.46.46,0,0,0-.46-.46h-1v-1a.46.46,0,0,0-.46-.46A.45.45,0,0,0,29,19.78Z"/></svg>