<svg id="Capa_1" data-name="Capa 1" xmlns="http://www.w3.org/2000/svg" xmlns:xlink="http://www.w3.org/1999/xlink" viewBox="0 0 36.46 51.93"><defs><style>.cls-1{fill:url(#linear-gradient);}</style><linearGradient id="linear-gradient" x1="5.02" y1="28.31" x2="32.25" y2="28.31" gradientUnits="userSpaceOnUse"><stop offset="0" stop-color="#2a5d9c"/><stop offset="1" stop-color="#0c1529"/></linearGradient></defs><title>iconos una marca</title><path class="cls-1" d="M32.13,23.27,27.75,17.6a.45.45,0,0,0-.78.07L24.4,22.12a23.31,23.31,0,0,0-3.26-1.3A23.21,23.21,0,0,0,17.5,20l-.34-3.74,8.51-1a.53.53,0,0,0,.44-.49.63.63,0,0,0-.3-.62L16.29,9.39s0,0,0,0h0l-.1,0H16a.28.28,0,0,0-.12,0l0,0a.18.18,0,0,0-.07,0L7.32,16.33a.66.66,0,0,0-.17.69.49.49,0,0,0,.46.36h0l6-.74h0l2.51-.31.32,3.5c-4-.42-7.54.29-8.61,2.53A22.46,22.46,0,0,0,5.56,28.1a16.8,16.8,0,0,0,1.2,11.8,13.74,13.74,0,0,0,8,6.77,13.14,13.14,0,0,0,3.92.62,11.33,11.33,0,0,0,6-1.67c3.07-1.88,5.23-5.14,6.24-9.41a25.4,25.4,0,0,0,.56-6.54v0c-.09-2.39-2.47-5.07-6.14-7.07l2.12-3.67L31.38,24a.45.45,0,0,0,.71,0A.63.63,0,0,0,32.13,23.27ZM16.18,11l2.51,3.84-4.26.53Zm3.66,3.71L17.6,11.28l6.06,3Zm-5-3.13-1.57,3.93L9.47,16Zm6,10.32a25.53,25.53,0,0,1,3,1.17L23,24.55a17.93,17.93,0,0,0-2.58-1,21.15,21.15,0,0,0-2.65-.69l-.17-1.74A22.49,22.49,0,0,1,20.87,21.92Zm-.63,7.42A8.24,8.24,0,0,1,19.12,29a1.22,1.22,0,0,0-.37-.05,1.47,1.47,0,0,0-.42.05l-.45-5a21.94,21.94,0,0,1,2.28.6,18.63,18.63,0,0,1,2.28.89ZM23.38,26a14.62,14.62,0,0,1,1.91,1.18c1.22.89,1.68,1.66,1.6,2s-.47.56-1.42.71a3.66,3.66,0,0,0-.88.35,2.31,2.31,0,0,1-1,.35c-.06,0-.22-.15-.33-.25a1.8,1.8,0,0,0-.89-.53c-.36-.05-.71-.12-1.06-.19Zm-6,3.13a3.43,3.43,0,0,1-.32-.41,2.36,2.36,0,0,0-.78-.79c-3-1.45-4.23-2.9-4.1-3.45.06-.24.63-.71,2.38-.75a14.24,14.24,0,0,1,2.34.17ZM24.2,44.61a10.9,10.9,0,0,1-9.15,1A12.75,12.75,0,0,1,7.61,39.3,15.47,15.47,0,0,1,6.52,28.4a20.05,20.05,0,0,1,1.22-3.5A7,7,0,0,0,9.2,27.43a6.3,6.3,0,0,1,.44,1,4.82,4.82,0,0,0,.95,1.75,1.4,1.4,0,0,0,1.37.18c.33-.08.52-.13.72,0a25.23,25.23,0,0,0,2.91,1.56,3.48,3.48,0,0,1,.4.68c.28.55.54,1.08.94,1.23s.9-.29,1.16-.6a3.45,3.45,0,0,1,.25-.27,9,9,0,0,0,2,.32c.39,0,.76.07,1.11.14s.68.55,1,1c.46.64.94,1.31,1.62,1.33h0c.63,0,1.2-.58,1.75-1.16.27-.29.72-.76.89-.76a4.47,4.47,0,0,0,3.66-1.48A20.05,20.05,0,0,1,30,35.9C29,39.86,27,42.87,24.2,44.61Zm6.21-14.33a3.4,3.4,0,0,1-3.58,2.39c-.56,0-1.07.5-1.6,1.06-.36.36-.84.86-1.09.86h0c-.23,0-.59-.5-.89-.91-.43-.61-.92-1.3-1.63-1.43a11.71,11.71,0,0,0-1.19-.14,8.76,8.76,0,0,1-1.9-.31.58.58,0,0,0-.22,0c-.4,0-.71.36-.93.63-.05.07-.13.15-.19.22-.1-.15-.24-.44-.34-.63A2.36,2.36,0,0,0,16,30.83a19.91,19.91,0,0,1-2.82-1.52,1.68,1.68,0,0,0-1.42-.1c-.34.08-.46.1-.56,0a5.68,5.68,0,0,1-.64-1.29,4.78,4.78,0,0,0-.63-1.32c-1.05-1.21-1.51-2.39-1.3-3.29.47-2,3.83-2.84,8-2.34l.16,1.72a12.86,12.86,0,0,0-2.26-.15c-1.93,0-3.07.58-3.32,1.59-.51,2.15,3.46,4.23,4.68,4.81a1.77,1.77,0,0,1,.4.48,2.31,2.31,0,0,0,.88.85,1.67,1.67,0,0,0,1.13-.06,1.24,1.24,0,0,1,.59-.09c.49.17,1,.29,1.46.43h0a19.07,19.07,0,0,0,1.89.37,1.13,1.13,0,0,1,.4.29,1.52,1.52,0,0,0,.9.5h.09A3.17,3.17,0,0,0,25,31.27,2.11,2.11,0,0,1,25.6,31c1.29-.21,2-.74,2.24-1.56s0-1.84-2-3.29A13.55,13.55,0,0,0,23.94,25l.83-1.45C28.73,25.67,30.85,28.44,30.41,30.28Z"/></svg>