<svg id="Capa_1" data-name="Capa 1" xmlns="http://www.w3.org/2000/svg" xmlns:xlink="http://www.w3.org/1999/xlink" viewBox="0 0 38.92 42.52"><defs><style>.cls-1{fill:url(#linear-gradient);}.cls-2{fill:url(#linear-gradient-2);}</style><linearGradient id="linear-gradient" x1="22.07" y1="36.93" x2="27.83" y2="36.93" gradientUnits="userSpaceOnUse"><stop offset="0" stop-color="#2a5d9c"/><stop offset="1" stop-color="#0c1529"/></linearGradient><linearGradient id="linear-gradient-2" x1="3.45" y1="22.93" x2="36.54" y2="22.93" xlink:href="#linear-gradient"/></defs><title>iconos una marca</title><path class="cls-1" d="M27.78,33.56a.54.54,0,0,0-.46-.61.55.55,0,0,0-.62.47,15.63,15.63,0,0,0,0,4.49.86.86,0,0,1-.4.86,10,10,0,0,1-3.77,1,.55.55,0,0,0,.06,1.09h.06a10.9,10.9,0,0,0,4.2-1.21,1.94,1.94,0,0,0,.93-2A14.61,14.61,0,0,1,27.78,33.56Z"/><path class="cls-2" d="M36.47,5.8a.35.35,0,0,0,.05-.08v0a.28.28,0,0,0,0-.09s0,0,0-.08h0s0,0,0,0a.29.29,0,0,0,0-.09.26.26,0,0,1,0-.08h0v0L36.4,5.2a.3.3,0,0,0-.08-.08v0s-.05,0-.07,0a.17.17,0,0,0-.1,0A.22.22,0,0,0,36,5H36c-.64.06-15.56,1.6-20.8,10.72-2.22,3.85-2.77,7.34-1.66,10.36,1.44,3.89,5.17,5.76,6.4,6.28a51.64,51.64,0,0,0-.08,5.86,1.48,1.48,0,0,1-.48,1.17,1.52,1.52,0,0,1-1.21.37,9.18,9.18,0,0,1-3.38-1,1,1,0,0,1-.49-.88V33.74c0-.6-.44-1.21-1.66-1.21H12c-2.32,0-4-.47-4.1-1.18A26.1,26.1,0,0,1,8,26a.52.52,0,0,0-.34-.56A24.67,24.67,0,0,1,5,24.18a.89.89,0,0,1-.43-.47.75.75,0,0,1,.14-.56c3-4.67,3.19-6,3.2-6.24,1.19-10,9.28-10.82,11.73-10.82h.86A16.09,16.09,0,0,1,24,6.52a.55.55,0,0,0,.66-.42.52.52,0,0,0-.41-.64A17.11,17.11,0,0,0,20.48,5h-.23l-.63,0C16.94,5,8.09,5.85,6.81,16.8c0,.05-.19,1.31-3,5.73a2,2,0,0,0-.3,1.41,1.87,1.87,0,0,0,.95,1.18A25.35,25.35,0,0,0,6.85,26.3a22.92,22.92,0,0,0,0,5.25c.34,1.8,3.38,2.08,5.17,2.08.29,0,.46,0,.48,0h.09c.35,0,.54.08.57.13v4.11a2.17,2.17,0,0,0,1,1.84A10.8,10.8,0,0,0,18,40.85a2,2,0,0,0,.35,0,2.58,2.58,0,0,0,2.57-2.69A51.17,51.17,0,0,1,21,32.6h.52c1.67,0,4.92-.31,7.22-2.4a8.42,8.42,0,0,0,2.47-6.68C31,14,36.39,5.94,36.44,5.86S36.47,5.81,36.47,5.8ZM14.52,25.7c-1-2.7-.47-5.87,1.57-9.42C19.72,10,28.62,7.45,33.21,6.54,23.65,12.81,20.73,23.36,20,31.22A10.72,10.72,0,0,1,14.52,25.7Zm15.57-2.13A7.36,7.36,0,0,1,28,29.4c-2.23,2-5.64,2.15-6.92,2.11.71-7.83,3.61-18.43,13.39-24.45A33.79,33.79,0,0,0,30.09,23.57Z"/></svg>